<svg xmlns="http://www.w3.org/2000/svg" width="200" height="250" viewBox="0 0 200 250"><rect width="100%" height="100%" fill="#DDDDDD"/><path fill="#999999" d="M92.885 85.415v17.42l-14.26-17.42h-5.5v28.7h6.56v-17.43l14.31 17.43h5.45v-28.7Zm23.41 29.03c7.02 0 12.1-4.72 12.1-11.36s-5.08-11.36-12.1-11.36c-7.01 0-12.13 4.72-12.13 11.36s5.12 11.36 12.13 11.36m0-5.25c-3.19 0-5.65-2.3-5.65-6.11s2.46-6.11 5.65-6.11c3.2 0 5.62 2.3 5.62 6.11s-2.42 6.11-5.62 6.11m-60.92 55.39c5 0 9.14-1.8 11.85-5.12l-4.27-3.94c-1.92 2.25-4.34 3.4-7.21 3.4-5.37 0-9.19-3.77-9.19-9.18s3.82-9.19 9.19-9.19c2.87 0 5.29 1.15 7.21 3.37l4.27-3.94c-2.71-3.28-6.85-5.08-11.81-5.08-8.94 0-15.58 6.19-15.58 14.84s6.64 14.84 15.54 14.84m25.58-.16c7.01 0 12.1-4.72 12.1-11.36s-5.09-11.36-12.1-11.36-12.13 4.72-12.13 11.36 5.12 11.36 12.13 11.36m0-5.25c-3.2 0-5.66-2.3-5.66-6.11s2.46-6.11 5.66-6.11 5.62 2.3 5.62 6.11-2.42 6.11-5.62 6.11m31.49-17.14-6.31 15.01-6.11-15.01h-6.6l9.26 22.06h6.6l9.31-22.06Zm29.77 11.11c0-7.09-5.01-11.44-11.48-11.44-6.73 0-11.77 4.76-11.77 11.36 0 6.56 4.96 11.36 12.59 11.36 3.97 0 7.05-1.23 9.1-3.57l-3.4-3.69c-1.52 1.43-3.2 2.13-5.54 2.13-3.36 0-5.7-1.68-6.31-4.43h16.68c.04-.53.13-1.23.13-1.72m-11.44-6.6c2.87 0 4.96 1.8 5.41 4.59h-10.87c.46-2.83 2.55-4.59 5.46-4.59m21.81-1.6v-2.91h-6.11v22.06h6.4v-10.42c0-4.22 2.33-6.15 5.86-6.15.49 0 .9.05 1.43.09v-5.91c-3.4 0-6.02 1.11-7.58 3.24"/></svg>